<?xml version="1.0" encoding="UTF-8" standalone="no"?>
<!-- Created with Inkscape (http://www.inkscape.org/) -->

<svg
   version="1.1"
   id="svg1"
   width="1024"
   height="1024"
   viewBox="0 0 1024 1024"
   xmlns:xlink="http://www.w3.org/1999/xlink"
   xmlns="http://www.w3.org/2000/svg"
   xmlns:svg="http://www.w3.org/2000/svg">
  <defs
     id="defs1">
    <linearGradient
       id="linearGradient34">
      <stop
         style="stop-color:#183036;stop-opacity:1;"
         offset="0.4781746"
         id="stop34" />
      <stop
         style="stop-color:#000000;stop-opacity:0.60227275;"
         offset="1"
         id="stop35" />
    </linearGradient>
    <linearGradient
       xlink:href="#linearGradient34"
       id="linearGradient35"
       x1="640.96893"
       y1="426.52393"
       x2="725.95319"
       y2="574.6153"
       gradientUnits="userSpaceOnUse" />
  </defs>
  <g
     id="layer1">
    <g
       id="layer2">
      <path
         style="fill:#000000;stroke-width:1.70079;stroke-linecap:round;stroke-linejoin:bevel"
         d="m 177.38779,399.7324 c -3.83353,-23.34967 0.3485,-46.35084 16.3799,-73.88286 16.03139,-27.53202 43.91104,-59.59361 81.20127,-87.12554 37.29024,-27.53193 83.98864,-50.53263 132.431,-67.26086 48.44235,-16.72823 98.62571,-27.18309 150.55312,-29.62256 51.92742,-2.43946 105.59573,3.13647 150.20441,14.63723 44.60868,11.50076 80.15523,28.92554 109.08116,50.18444 28.92593,21.2589 51.22964,46.35058 64.82129,65.16985 13.59165,18.81926 18.47059,31.3651 19.51607,44.60833 1.04548,13.24324 -1.74248,27.18306 -10.10668,35.54715 -8.3642,8.36409 -22.30403,11.15205 -45.65402,11.50053 -23.35,0.34848 -56.10858,-1.74249 -94.4443,5.22773 -38.33572,6.97021 -82.24616,23.001 -123.36984,44.60843 -41.12368,21.60743 -79.45819,48.79008 -111.17217,68.65485 -31.71398,19.86477 -56.80566,32.41061 -89.91382,38.33515 -33.10815,5.92453 -74.23062,5.22754 -112.56626,-4.18221 -38.33563,-9.40975 -73.88218,-27.53152 -97.58047,-48.44191 -23.69828,-20.91038 -35.54713,-44.60808 -39.38066,-67.95775 z"
         id="path2"
         transform="matrix(1.3555497,0,0,1.3555497,-220.05144,-75.581736)" />
      <path
         style="fill:#ed043c;fill-opacity:1;stroke-width:1.70079;stroke-linecap:round;stroke-linejoin:bevel"
         d="m 192.7219,379.50884 c 1.74251,-24.03211 16.37932,-49.08214 32.75927,-69.29361 16.37995,-20.21147 34.50136,-35.58244 59.24553,-53.371 24.74417,-17.78855 56.10877,-37.99297 93.39898,-54.36855 37.2902,-16.37558 80.50365,-28.92142 124.41541,-35.89148 43.91176,-6.97007 88.5192,-8.36405 131.38542,-3.4849 42.86622,4.87914 83.9887,16.031 119.88476,32.06233 35.89607,16.03132 66.56368,36.94105 88.17096,58.54843 21.60728,21.60738 34.15312,43.9111 37.60775,58.89211 3.45463,14.98102 -2.18186,22.63843 -12.63715,25.77502 -10.45528,3.13658 -25.72841,1.75194 -47.3055,2.10513 -21.5771,0.3532 -49.45674,2.44417 -79.42828,8.37505 -29.97154,5.93089 -62.0325,15.70106 -91.30729,28.59383 -29.2748,12.89277 -55.75992,28.90658 -83.64069,45.64129 -27.88077,16.73471 -57.1538,34.18828 -80.50394,46.39652 -23.35013,12.20824 -40.77457,19.16969 -59.24557,24.39109 -18.47099,5.22139 -37.98637,8.70212 -60.63948,7.99677 -22.65311,-0.70535 -48.44179,-5.59678 -74.23123,-15.01274 -25.78945,-9.41595 -51.57812,-23.35577 -70.04886,-41.83288 -18.47075,-18.47711 -29.6226,-41.4903 -27.88009,-65.52241 z"
         id="path3"
         transform="matrix(1.3555497,0,0,1.3636965,-217.58705,-76.640225)" />
      <path
         style="fill:#f76036;fill-opacity:1;stroke:#e30035;stroke-width:1.70079;stroke-linecap:round;stroke-linejoin:bevel;stroke-opacity:0"
         d="m 213.09822,332.4784 c 6.70721,-10.11459 15.95067,-22.05589 29.63382,-35.90586 13.68316,-13.84997 31.80457,-29.60719 61.22984,-48.62474 29.42527,-19.01754 70.15087,-41.29314 116.85115,-57.64541 46.70027,-16.35227 99.3696,-26.77926 149.11739,-28.30993 49.74779,-1.53068 96.56805,5.83514 139.31192,18.65475 42.74387,12.81962 81.40622,31.09149 108.89248,52.0868 27.48626,20.99531 43.79314,44.71154 52.46194,58.78276 8.66879,14.07123 9.69845,18.49575 9.56608,20.60457 -0.13236,2.10883 -1.42674,1.90169 -9.63469,0.55526 -8.20795,-1.34643 -23.3288,-3.83205 -38.55369,-5.48917 -15.22488,-1.65712 -30.55288,-2.48566 -42.15275,-2.6928 -11.59988,-0.20713 -19.47101,0.20714 -32.0031,2.07143 -12.5321,1.86428 -29.72431,5.17844 -45.36346,9.11413 -15.63915,3.93569 -29.72433,8.49267 -44.01708,14.08549 -14.29275,5.59282 -28.79221,12.22115 -45.77782,20.9211 -16.98561,8.69996 -36.4563,19.47098 -56.85972,32.21019 -20.40343,12.7392 -41.73834,27.44579 -60.58004,39.61483 -18.8417,12.16904 -35.03049,21.70639 -53.6032,29.79953 -18.5727,8.09313 -39.25428,14.62129 -57.8714,17.81152 -18.61712,3.19023 -34.98079,2.98309 -58.29635,-2.43277 -23.31556,-5.41586 -53.58148,-16.04002 -74.0168,-25.81076 -20.43531,-9.77073 -31.039,-18.68747 -39.8873,-27.32663 -8.8483,-8.63915 -15.94073,-17.00022 -19.56412,-26.18467 -3.6234,-9.18444 -3.77762,-19.19187 -1.7693,-28.33971 2.00832,-9.14784 6.179,-17.43531 12.8862,-27.54991 z"
         id="path4"
         transform="matrix(1.3555497,0,0,1.3555497,-219.92089,-78.61141)" />
      <path
         style="fill:#fffbf9;fill-opacity:1;stroke:#e30035;stroke-width:1.70079;stroke-linecap:round;stroke-linejoin:bevel;stroke-opacity:0"
         d="m 714.13292,179.68039 c -8.28011,-2.47694 -17.83893,-5.01888 -30.06936,-8.0072 -12.23044,-2.98832 -26.16372,-6.16542 -44.3725,-8.70551 -18.20878,-2.54009 -40.69083,-4.44286 -65.3138,-4.06025 -24.62297,0.38261 -51.38384,3.05055 -79.03324,8.25527 -27.64939,5.20472 -56.18395,12.94558 -82.84248,22.28245 -26.65854,9.33686 -51.43782,20.2686 -79.48734,36.80258 -28.04952,16.53397 -59.36589,38.66819 -79.46698,55.99218 -20.10108,17.32399 -28.98449,29.8357 -36.73571,41.27907 -7.75122,11.44336 -14.36932,21.81702 -17.32539,32.80534 -2.95608,10.98831 -2.24977,22.58995 3.53037,33.63736 5.78015,11.0474 16.63367,21.5395 25.18942,28.66159 8.55575,7.1221 14.81313,10.87375 20.65578,14.11988 5.84265,3.24614 11.26987,5.98637 18.8272,9.38846 7.55733,3.40209 17.24386,7.46562 29.40677,11.89986 12.16291,4.43424 26.80075,9.23866 41.92797,11.81087 15.12722,2.57222 30.73706,2.91181 43.14379,2.1114 12.40673,-0.80042 21.60016,-2.74031 32.39238,-5.69306 10.79222,-2.95274 23.18059,-6.91771 30.97058,-9.85359 7.78999,-2.93587 10.98067,-4.84229 7.6014,-4.55833 -3.37926,0.28396 -13.32828,2.75832 -21.6714,4.64911 -8.34312,1.8908 -15.07988,3.19793 -21.2638,3.95206 -6.18393,0.75413 -11.81466,0.95523 -17.59638,1.05578 -5.78173,0.10055 -11.7141,0.10055 -19.35605,-0.60332 -7.64195,-0.70387 -16.99298,-2.11155 -27.14871,-4.12259 -10.15573,-2.01104 -21.11554,-4.6253 -33.69952,-8.95488 -12.58398,-4.32957 -26.79106,-10.37404 -37.71603,-15.65889 -10.92497,-5.28485 -18.56652,-9.80945 -26.45153,-15.30653 -7.88501,-5.49707 -15.96099,-11.92493 -22.25913,-18.39133 -6.29815,-6.4664 -10.72691,-12.88043 -12.39935,-19.61788 -1.67245,-6.73744 -0.57467,-13.77766 2.55167,-22.0563 3.12635,-8.27864 8.28099,-17.79491 17.59539,-29.13934 9.3144,-11.34443 22.78793,-24.51631 42.41825,-39.79579 19.63032,-15.27949 45.41561,-32.66527 70.09665,-46.78867 24.68103,-14.1234 48.25484,-24.98273 72.29487,-33.93985 24.04003,-8.95712 48.5434,-16.01097 69.58781,-20.88296 21.04441,-4.87199 38.62734,-7.56155 63.75915,-8.55447 25.1318,-0.99292 57.80948,-0.2891 90.54496,2.89477 32.73548,3.18387 65.52466,8.84736 80.34223,10.7416 14.81758,1.89423 11.82093,0.1137 7.72589,-1.78411 -4.09504,-1.8978 -8.07373,-3.38784 -16.35383,-5.86478 z"
         id="path6"
         transform="matrix(1.3555497,0,0,1.3555497,-219.0932,-75.246102)" />
      <path
         style="fill:#fffbf9;fill-opacity:1;stroke:#e30035;stroke-width:1.70079;stroke-linecap:round;stroke-linejoin:bevel;stroke-opacity:0"
         d="m 203.49009,373.83305 c 2.98888,-0.82287 8.96665,-2.46861 15.83134,-3.63987 6.8647,-1.17125 14.61601,-1.868 23.23852,-2.34703 8.62251,-0.47902 18.11568,-0.7403 31.04947,0.17422 12.93379,0.91452 29.30734,3.00476 47.72816,6.61925 18.42081,3.6145 38.88775,8.75301 55.69724,13.97877 16.80949,5.22576 29.96058,10.53845 40.58627,15.50292 10.62568,4.96447 18.72536,9.58042 26.34626,14.15295 7.62089,4.57254 14.76254,9.1014 19.84828,13.60399 5.08574,4.50259 8.11524,8.97854 9.65738,11.25076 1.54215,2.27221 1.59672,2.34034 -1.48587,4.19577 -3.08258,1.85544 -9.3021,5.498 -12.80385,7.40642 -3.50176,1.90841 -4.2856,2.0826 -5.15656,2.25679 -0.87096,0.17419 -1.82899,0.34838 -8.88383,-4.92098 -7.05483,-5.26936 -20.20593,-15.98184 -38.89047,-26.20529 -18.68453,-10.22345 -39.96399,-18.77663 -64.24521,-25.65739 -24.28121,-6.88076 -44.94654,-10.22179 -66.55251,-11.89494 -21.60597,-1.67314 -39.6665,-1.23097 -51.012,-0.007 -11.3455,1.22377 -15.20781,3.20802 -17.48853,3.28623 -2.28073,0.0782 -2.97748,-1.75074 -4.10973,-4.14589 -1.13225,-2.39514 -2.69993,-5.35632 -3.16305,-7.58179 -0.46312,-2.22547 0.17832,-3.71513 0.49905,-4.45997 0.32073,-0.74484 0.32075,-0.74484 3.30964,-1.56771 z"
         id="path7"
         transform="matrix(1.3555497,0,0,1.3555497,-220.70562,-84.575104)" />
      <path
         style="fill:#fffbf9;fill-opacity:1;stroke:#e30035;stroke-width:1.70079;stroke-linecap:round;stroke-linejoin:bevel;stroke-opacity:0"
         d="m 226.32543,311.65066 c 4.59399,-0.60561 14.4455,-2.0505 26.92424,-3.10133 12.47873,-1.05084 27.58408,-1.70759 41.74959,-1.37583 14.16551,0.33177 27.39034,1.65201 41.73958,4.3319 14.34923,2.67989 29.82198,6.71923 41.80342,9.90287 11.98143,3.18364 20.4709,5.5114 30.77498,9.20856 10.30409,3.69715 22.42212,8.76344 34.47206,14.48032 12.04993,5.71688 24.03104,12.08399 34.16392,18.17742 10.13288,6.09343 18.41696,11.91282 25.72607,18.63415 7.30912,6.72132 13.64274,14.34402 17.07106,18.46868 3.42832,4.12467 3.95098,4.75084 8.01385,2.342 4.06288,-2.40884 11.66552,-7.85242 15.7,-10.67623 4.03448,-2.82381 4.50035,-3.02754 1.13882,-6.34732 -3.36153,-3.31978 -10.55019,-9.75534 -20.82005,-17.66313 -10.26987,-7.90778 -23.62025,-17.28728 -37.41606,-25.33197 -13.79581,-8.04468 -28.03621,-14.7541 -41.45545,-20.43673 -13.41924,-5.68263 -26.01652,-10.33815 -36.56019,-13.62448 -10.54367,-3.28633 -19.03314,-5.20331 -32.04164,-7.90771 -13.0085,-2.7044 -30.53515,-6.19603 -44.09128,-8.35268 -13.55614,-2.15666 -23.14103,-2.97822 -36.56032,-2.87551 -13.41928,0.1027 -30.67208,1.12966 -41.55804,2.32781 -10.88595,1.19814 -15.40454,2.56741 -19.68364,5.92225 -4.27909,3.35483 -8.31843,8.69498 -10.66992,11.48194 -2.35148,2.78697 -3.01499,3.02063 1.579,2.41502 z"
         id="path8"
         transform="matrix(1.3555497,0,0,1.3555497,-216.59275,-74.275206)" />
      <path
         style="fill:#fffbf9;fill-opacity:1;stroke:#e30035;stroke-width:1.70079;stroke-linecap:round;stroke-linejoin:bevel;stroke-opacity:0"
         d="m 314.39175,238.50641 c 5.94893,0.0601 18.05319,-0.36211 33.81707,0.4824 15.76389,0.8445 35.18662,2.95567 50.61167,5.61795 15.42505,2.66227 26.85158,5.87549 38.62903,9.58599 11.77744,3.7105 23.90508,7.91805 36.32185,12.90951 12.41677,4.99147 25.12192,10.76654 39.7663,18.8519 14.64438,8.08535 31.22707,18.48047 43.47879,27.30832 12.25172,8.82785 20.17181,16.08794 26.69858,22.89115 6.52678,6.8032 11.65973,13.14896 14.37159,16.45062 2.71186,3.30165 3.00222,3.55871 6.90345,1.65582 3.90122,-1.90289 11.41287,-5.96552 15.20774,-8.06178 3.79487,-2.09625 3.87258,-2.22593 0.14529,-6.56562 -3.72728,-4.3397 -11.25906,-12.88884 -21.0247,-21.68459 -9.76564,-8.79575 -21.76421,-17.83722 -34.24019,-26.23575 -12.47599,-8.39852 -25.42864,-16.15361 -37.42181,-22.50735 -11.99316,-6.35374 -23.02614,-11.30579 -33.49978,-15.78374 -10.47364,-4.47795 -20.38733,-8.48156 -30.53964,-11.96098 -10.1523,-3.47942 -20.5426,-6.43446 -31.62435,-8.91295 -11.08174,-2.47849 -22.85424,-4.4803 -33.62616,-6.19618 -10.77191,-1.71588 -20.54261,-3.14573 -29.50332,-4.14666 -8.96071,-1.00093 -17.1109,-1.57287 -21.80571,-1.88268 -4.69481,-0.30981 -5.93402,-0.35748 -11.72517,2.52619 -5.79115,2.88367 -16.13379,8.69842 -21.40842,11.87712 -5.27463,3.17869 -5.48103,3.72118 0.46789,3.78131 z"
         id="path9"
         transform="matrix(1.3555497,0,0,1.3555497,-214.73945,-73.103276)" />
      <path
         style="fill:#fffbf9;fill-opacity:1;stroke:#e30035;stroke-width:1.70079;stroke-linecap:round;stroke-linejoin:bevel;stroke-opacity:0"
         d="m 454.6941,188.25636 c -1.66734,2.15683 5.76685,2.58514 13.58354,3.54885 7.81669,0.9637 16.01555,2.46275 25.04069,4.81847 9.02515,2.35572 18.87602,5.56796 28.74248,9.20862 9.86647,3.64065 19.74793,7.70948 29.90504,12.43621 10.1571,4.72673 20.58924,10.11106 30.4251,15.52615 9.83586,5.41508 19.07488,10.86059 27.42695,16.36745 8.35206,5.50687 15.8167,11.07475 23.25096,17.28528 7.43427,6.21052 14.83772,13.0633 21.35416,19.42678 6.51645,6.36348 12.14552,12.2373 16.92534,18.06743 4.77981,5.83013 8.71002,11.61612 10.83818,14.68885 2.12816,3.07274 2.45402,3.43183 4.57309,2.81792 2.11908,-0.61392 6.03119,-2.20081 9.63937,-3.44905 3.60817,-1.24824 6.91208,-2.15774 8.53058,-2.70318 1.61851,-0.54545 1.55133,-0.72673 0.63417,-2.62009 -0.91717,-1.89335 -2.68421,-5.49854 -5.93947,-10.23057 -3.25527,-4.73203 -7.99846,-10.59046 -13.33772,-16.54853 -5.33925,-5.95807 -11.27425,-12.01544 -17.16353,-17.46111 -5.88928,-5.44567 -11.7325,-10.27933 -19.13619,-15.93917 -7.40369,-5.65984 -16.36737,-12.1455 -24.84182,-17.79003 -8.47444,-5.64453 -16.45915,-10.44759 -23.78633,-14.57773 -7.32718,-4.13014 -13.99641,-7.58713 -21.8284,-11.33486 -7.832,-3.74773 -16.82627,-7.78597 -25.97379,-11.35013 -9.14751,-3.56416 -18.44771,-6.65403 -27.67171,-9.34627 -9.22399,-2.69224 -18.37123,-4.9867 -26.35617,-6.71523 -7.98494,-1.72854 -14.80712,-2.89106 -23.60283,-1.52962 -8.7957,1.36144 -19.56436,5.24672 -21.23169,7.40356 z"
         id="path10"
         transform="matrix(1.3555497,0,0,1.3555497,-225.5429,-75.024216)" />
      <path
         style="fill:#fffbf9;fill-opacity:1;stroke:#e30035;stroke-width:1.70079;stroke-linecap:round;stroke-linejoin:bevel;stroke-opacity:0"
         d="m 593.02914,168.45582 c 6.76651,3.02978 20.29953,9.08935 33.02473,15.14897 12.7252,6.05962 24.6421,12.11907 35.82244,18.47809 11.18034,6.35902 21.62346,13.01724 29.71195,18.75085 8.0885,5.73361 13.82192,10.54229 20.32617,16.5225 6.50425,5.98022 13.77891,13.13158 21.26958,21.17712 7.49067,8.04554 15.19688,16.98475 20.57304,23.82182 5.37615,6.83708 8.42191,11.57156 10.23523,14.94373 1.81331,3.37218 2.39396,5.38165 2.73973,6.56583 0.34577,1.18417 0.45661,1.54289 2.63715,1.3334 2.18054,-0.20949 6.43055,-0.98718 10.41424,-1.43179 3.98369,-0.44461 7.70079,-0.55612 9.50362,-0.8535 1.80283,-0.29738 1.69132,-0.7806 0.11149,-3.82874 -1.57983,-3.04814 -4.62786,-8.66097 -8.30791,-14.497 -3.68004,-5.83603 -7.99189,-11.89491 -12.00648,-17.28487 -4.01459,-5.38995 -7.73169,-10.11067 -12.48973,-15.4263 -4.75805,-5.31562 -10.55673,-11.22582 -14.92445,-15.51918 -4.36771,-4.29337 -7.30423,-6.96968 -11.6348,-10.59398 -4.33057,-3.62429 -10.0549,-8.19633 -17.06187,-13.21457 -7.00696,-5.01825 -15.2961,-10.4824 -23.34387,-15.33336 -8.04777,-4.85096 -15.85369,-9.08846 -24.32894,-13.67922 -8.47526,-4.59076 -17.61934,-9.53451 -23.43675,-12.47109 -5.81741,-2.93658 -8.30787,-3.86586 -9.72041,-4.36768 -1.41253,-0.50182 -1.74706,-0.57616 -8.90277,-0.70626 -7.1557,-0.1301 -21.13201,-0.31596 -28.43186,-0.41934 -7.29986,-0.10338 -7.92294,-0.12428 -8.23449,-0.13473 -0.31155,-0.0104 -0.31155,-0.0105 6.45496,3.0193 z"
         id="path11"
         transform="matrix(1.3555497,0,0,1.3555497,-238.23491,-76.124548)" />
      <path
         style="fill:#fffbf9;fill-opacity:1;stroke:#e30035;stroke-width:1.70079;stroke-linecap:round;stroke-linejoin:bevel;stroke-opacity:0"
         d="m 741.76907,192.65601 c 3.06639,1.19485 9.19907,3.58449 17.94799,9.67634 8.74892,6.09185 20.11319,15.88524 28.99719,24.87584 8.884,8.9906 15.28667,17.17733 21.22462,25.43058 5.93795,8.25324 11.41046,16.57201 15.56602,24.23672 4.15556,7.6647 6.99366,14.6744 8.72933,20.4707 1.73566,5.7963 2.36868,10.37848 2.74312,12.83562 0.37445,2.45714 0.49028,2.78892 2.5258,3.07403 2.03552,0.2851 5.99048,0.52351 9.91945,0.91894 3.92897,0.39544 7.83155,0.94788 9.78472,1.13502 1.95317,0.18713 1.95683,0.009 0.95166,-3.83067 -1.00517,-3.83964 -3.0191,-11.34043 -5.41391,-18.66853 -2.39482,-7.32809 -5.17031,-14.48288 -8.4564,-21.0199 -3.2861,-6.53702 -7.08241,-12.45549 -11.39536,-19.63089 -4.31295,-7.17541 -9.14203,-15.60691 -14.849,-21.84353 -5.70697,-6.23662 -12.29115,-10.27762 -21.74481,-14.91228 -9.45365,-4.63467 -21.77563,-9.86243 -31.79741,-13.95478 -10.02177,-4.09234 -17.74227,-7.04883 -21.99201,-8.52422 -4.24974,-1.47538 -5.02853,-1.46962 -5.41794,-1.46673 -0.38941,0.003 -0.38946,0.003 2.67694,1.19774 z"
         id="path12"
         transform="matrix(1.3555497,0,0,1.3555497,-245.52561,-88.263991)" />
      <path
         style="fill:#b8bbcd;fill-opacity:1;stroke:#e30035;stroke-width:1.70079;stroke-linecap:round;stroke-linejoin:bevel;stroke-opacity:0"
         d="m 454.65501,456.63647 c 0.0961,0.0794 0.28825,0.23831 4.18344,4.62918 3.89519,4.39087 11.493,13.01329 15.42016,17.43998 3.92716,4.42669 4.18331,4.65725 6.20067,3.67994 2.01736,-0.97731 5.79577,-3.16242 9.53586,-5.11834 3.74008,-1.95593 7.44155,-3.68252 9.22706,-4.74442 1.7855,-1.06189 1.65482,-1.45894 -2.2827,-5.9166 -3.93751,-4.45766 -11.68137,-12.9754 -15.55203,-17.29191 -3.87066,-4.31651 -3.86766,-4.4313 -7.69365,-2.52382 -3.82599,1.90748 -11.48038,5.83693 -15.30774,7.80174 -3.82736,1.96481 -3.82715,1.96481 -3.73107,2.04425 z"
         id="path13"
         transform="matrix(1.3555497,0,0,1.3555497,-223.4925,-84.082355)" />
      <path
         style="fill:#b8bbcd;fill-opacity:1;stroke:#e30035;stroke-width:1.70079;stroke-linecap:round;stroke-linejoin:bevel;stroke-opacity:0"
         d="m 454.66134,456.64911 c 0.1024,0.0921 0.3072,0.27623 4.02821,5.15772 3.721,4.8815 10.95782,14.45983 14.62522,19.28517 3.66739,4.82534 3.76501,4.89725 5.83947,3.65315 2.07445,-1.24409 6.1255,-3.80402 9.72304,-5.95775 3.59754,-2.15372 6.74114,-3.90097 8.26148,-4.85266 1.52034,-0.9517 1.41721,-1.1077 -1.95996,-6.46788 -3.37716,-5.36018 -10.02785,-15.92374 -13.43408,-21.2759 -3.40623,-5.35217 -3.56756,-5.49223 -7.55789,-2.89578 -3.99033,2.59646 -11.80905,7.92904 -15.71858,10.59544 -3.90953,2.66641 -3.90932,2.66641 -3.80691,2.75849 z"
         id="path13-2"
         transform="matrix(1.3555497,0,0,1.3555497,-121.1485,-144.42754)" />
      <path
         style="fill:#b8bbcd;fill-opacity:1;stroke:#e30035;stroke-width:1.70079;stroke-linecap:round;stroke-linejoin:bevel;stroke-opacity:0"
         d="m 464.41777,470.29523 c 9.88166,16.56273 3.35556,5.7501 6.64229,11.26418 3.28672,5.51408 3.33407,5.72958 5.39057,4.7081 2.0565,-1.02149 6.12191,-3.27984 10.06414,-5.22531 3.94223,-1.94547 7.76072,-3.57779 9.62579,-4.50797 1.86508,-0.93017 1.77631,-1.15797 -1.44177,-6.83956 -3.21808,-5.68158 -9.56489,-16.81595 -12.82906,-22.55887 -3.26417,-5.74292 -3.4451,-6.09333 -7.48697,-4.09506 -4.04188,1.99827 -11.94409,6.34492 -15.86448,8.63302 -3.92039,2.2881 -3.98216,2.05874 5.89949,18.62147 z"
         id="path13-2-7"
         transform="matrix(1.3555497,0,0,1.3555497,-16.754633,-205.02644)" />
      <path
         style="fill:#b8bbcd;fill-opacity:1;stroke:#e30035;stroke-width:1.70079;stroke-linecap:round;stroke-linejoin:bevel;stroke-opacity:0"
         d="m 469.86014,488.33407 c 2.43117,-0.64096 7.11449,-2.22069 11.04125,-3.39189 3.92677,-1.1712 7.09632,-1.93368 8.65761,-2.39677 1.56129,-0.46309 1.51372,-0.62662 -0.51995,-7.36829 -2.03366,-6.74166 -6.05299,-20.06009 -8.09639,-26.78431 -2.0434,-6.72421 -2.11043,-6.85283 -5.93494,-5.66606 -3.82451,1.18677 -11.40569,3.68871 -15.16701,4.98625 -3.76131,1.29754 -3.70197,1.39049 -1.87917,7.89861 1.8228,6.50811 5.55513,19.95772 7.42191,26.51162 1.86678,6.55389 2.04553,6.85179 4.47669,6.21084 z"
         id="path13-2-7-1"
         transform="matrix(1.3555497,0,0,1.3555497,83.196282,-245.81361)" />
      <path
         style="fill:#b8bbcd;fill-opacity:1;stroke:#e30035;stroke-width:1.70079;stroke-linecap:round;stroke-linejoin:bevel;stroke-opacity:0"
         d="m 462.13158,489.98557 c 0.0286,0.16053 0.0573,0.32106 0.55305,0.31116 0.49579,-0.01 1.45864,-0.19021 3.58354,-0.52054 2.1249,-0.33034 5.41171,-0.81068 8.97439,-1.23281 3.56268,-0.42212 7.40015,-0.78591 9.31363,-1.03853 1.91347,-0.25261 1.90161,-0.39386 1.18242,-7.34955 -0.71918,-6.95569 -2.14481,-20.71722 -2.8945,-27.67428 -0.7497,-6.95706 -0.82233,-7.09907 -4.89424,-6.76253 -4.07192,0.33655 -12.14224,1.15162 -16.13947,1.65342 -3.99723,0.50179 -3.92054,0.69021 -3.47654,4.88745 0.44401,4.19723 1.2553,12.403 2.06661,20.6089 z"
         id="path13-2-7-1-4"
         transform="matrix(1.3555497,0,0,1.3555497,181.56649,-269.80008)" />
      <path
         style="fill:#b8bbcd;fill-opacity:1;stroke:#e30035;stroke-width:1.70079;stroke-linecap:round;stroke-linejoin:bevel;stroke-opacity:0"
         d="m 462.62158,489.51965 c 0.009,0.10837 0.0284,0.32371 1.94876,0.36348 1.9204,0.0398 5.74168,-0.0967 9.45162,-0.0929 3.70994,0.004 7.30737,0.14809 9.10077,0.11807 1.79339,-0.03 1.78153,-0.23425 1.96107,-6.18746 0.17953,-5.95322 0.55025,-17.64807 0.67513,-23.60134 0.12489,-5.95327 0.004,-6.15594 -3.97378,-6.71989 -3.97753,-0.56396 -11.81055,-1.48902 -15.77812,-1.70906 -3.96756,-0.22004 -4.06847,0.26319 -3.98962,6.69156 0.0788,6.42837 0.33543,18.66581 0.46505,24.84748 0.12961,6.18168 0.12962,6.18168 0.13912,6.29005 z"
         id="path13-2-7-1-4-0"
         transform="matrix(1.3555497,0,0,1.3555497,263.37542,-276.34949)" />
      <g
         id="layer3">
        <circle
           style="fill:#fffbf9;fill-opacity:1;stroke:#e30035;stroke-width:2.30551;stroke-linecap:round;stroke-linejoin:bevel;stroke-opacity:0"
           id="path14-9"
           cx="242.6288"
           cy="293.50177"
           r="16.266596" />
        <circle
           style="fill:#fffbf9;fill-opacity:1;stroke:#e30035;stroke-width:2.30551;stroke-linecap:round;stroke-linejoin:bevel;stroke-opacity:0"
           id="path14-0"
           cx="567.92786"
           cy="294.21429"
           r="14.911045" />
        <circle
           style="fill:#fffbf9;fill-opacity:1;stroke:#e30035;stroke-width:2.30551;stroke-linecap:round;stroke-linejoin:bevel;stroke-opacity:0"
           id="path14-8"
           cx="356.0098"
           cy="423.06088"
           r="14.911045" />
        <circle
           style="fill:#fffbf9;fill-opacity:1;stroke:#e30035;stroke-width:2.30551;stroke-linecap:round;stroke-linejoin:bevel;stroke-opacity:0"
           id="path14-97"
           cx="413.07162"
           cy="224.0183"
           r="14.911045" />
        <circle
           style="fill:#fffbf9;fill-opacity:1;stroke:#e30035;stroke-width:2.30551;stroke-linecap:round;stroke-linejoin:bevel;stroke-opacity:0"
           id="path14"
           cx="158.42116"
           cy="376.47247"
           r="14.911045" />
        <ellipse
           style="fill:#fffbf9;fill-opacity:1;stroke:#e30035;stroke-width:2.30551;stroke-linecap:round;stroke-linejoin:bevel;stroke-opacity:0"
           id="path14-7"
           cx="305.39017"
           cy="296.28223"
           rx="17.622147"
           ry="18.977695" />
      </g>
    </g>
    <g
       id="layer5">
      <path
         style="fill:#000000;fill-opacity:1;stroke:#e30035;stroke-width:1.70079;stroke-linecap:round;stroke-linejoin:bevel;stroke-opacity:0"
         d="m 185.93941,442.67766 c -4.10602,2.04282 -8.15238,8.23881 -10.80781,16.01551 -2.65544,7.77669 -3.9199,17.13372 -2.90828,25.85877 1.01162,8.72504 4.29922,16.81761 7.39725,22.69751 3.09802,5.87991 6.00629,9.54685 8.02948,11.69649 2.02319,2.14963 3.16121,2.78187 3.92856,3.42038 0.76736,0.63852 1.16401,1.28329 0.39524,3.12541 -0.76877,1.84211 -2.70288,4.88144 -3.91174,10.85669 -1.20885,5.97525 -1.69238,14.886 0.3109,24.00426 2.00328,9.11825 6.49319,18.44346 10.9487,25.28213 4.45551,6.83866 8.87635,11.19043 13.05555,14.40253 4.1792,3.2121 8.11651,5.28437 11.98486,6.52776 3.86835,1.24339 7.66751,1.65784 9.67074,2.00323 2.00324,0.34539 2.21046,0.62169 3.00486,3.24667 0.7944,2.62497 2.17591,7.59842 4.17917,11.81215 2.00326,4.21373 4.62814,7.66751 7.56394,10.9487 2.93581,3.28119 6.18236,6.38959 10.46519,9.429 4.28282,3.03942 9.60165,6.00968 14.29892,8.2547 4.69728,2.24501 8.77274,3.76468 12.67562,5.59524 3.90289,1.83056 7.63298,3.9719 11.46679,5.62976 3.83381,1.65786 7.77112,2.83214 11.19046,3.62653 3.41934,0.79439 6.32052,1.20885 7.94383,1.55423 1.62331,0.34539 1.96869,0.62169 4.35189,2.69404 2.3832,2.07235 6.80404,5.94059 12.67566,9.04907 5.87162,3.10849 13.19363,5.45706 19.65239,7.21854 6.45875,1.76147 12.05388,2.93576 15.30051,3.59199 3.24662,0.65623 4.14461,0.79439 7.6676,2.86674 3.52298,2.07234 9.67071,6.07873 15.50778,9.39445 5.83706,3.31573 11.3631,5.9406 18.02911,8.01293 6.66601,2.07232 14.47156,3.59199 21.03392,4.24821 6.56237,0.65623 11.88119,0.449 16.19853,0 4.31735,-0.44901 7.63298,-1.13976 10.91417,-2.45224 3.28119,-1.31248 6.52775,-3.24661 8.32376,-4.21368 1.796,-0.96708 2.14138,-0.96708 3.52294,2e-5 1.38156,0.96709 3.79921,2.90121 7.73665,4.1446 3.93745,1.2434 9.39442,1.796 14.88609,1.72691 5.49168,-0.0691 11.01773,-0.75984 16.95841,-2.27956 5.94069,-1.51971 12.29565,-3.86828 17.85639,-6.80409 5.56075,-2.93581 10.32697,-6.45866 13.33183,-8.39282 3.00486,-1.93416 4.24822,-2.27954 8.77284,-2.93578 4.52462,-0.65625 12.33017,-1.6233 18.47807,-3.00486 6.14789,-1.38156 10.63781,-3.17752 14.05714,-4.83539 3.41934,-1.65786 5.76791,-3.17752 7.11491,-3.93737 1.34701,-0.75985 1.69239,-0.75985 2.90125,-0.31084 1.20887,0.44901 3.28114,1.347 5.42255,1.76146 2.14141,0.41446 4.35183,0.34539 8.8419,-1.03618 4.49007,-1.38157 11.25948,-4.07552 34.22798,-15.33527 22.96849,-11.25975 62.13436,-31.08445 82.02854,-41.23877 19.89418,-10.15432 20.51586,-10.63785 22.72637,-12.7102 2.2105,-2.07235 6.00966,-5.73336 8.32374,-8.77277 2.31409,-3.03941 3.14299,-5.45705 5.62981,-7.39123 2.48682,-1.93417 6.63135,-3.38475 13.0556,-6.28603 6.42425,-2.90128 15.12777,-7.25304 20.99935,-10.77599 5.87157,-3.52295 8.9109,-6.21691 10.74145,-8.60008 1.83055,-2.38318 2.45223,-4.45545 2.83215,-6.66594 0.37993,-2.21049 0.51808,-4.55906 0.86347,-5.73337 0.34539,-1.1743 0.89799,-1.1743 2.41771,-1.1743 1.51972,0 4.00644,0 6.73501,-0.72532 2.72857,-0.72533 5.69883,-2.17592 10.60337,-5.24989 4.90453,-3.07397 11.74301,-7.77112 16.78566,-13.91904 5.04266,-6.14793 8.28921,-13.74625 10.11976,-20.82671 1.83054,-7.08046 2.245,-13.64264 2.34861,-19.65239 0.10361,-6.00976 -0.10362,-11.46673 -1.20887,-15.5423 -1.10525,-4.07557 -3.10845,-6.76952 -4.11006,-8.32375 -1.00162,-1.55424 -1.00162,-1.96869 1.03619,-4.14466 2.03781,-2.17597 6.11328,-6.11327 10.29248,-12.22667 4.1792,-6.1134 8.46189,-14.40247 9.84341,-24.55691 1.38153,-10.15444 -0.13814,-22.17359 -3.24665,-30.91189 -3.10851,-8.73829 -7.80565,-14.19527 -10.11973,-17.09651 -2.31407,-2.90123 -2.245,-3.24661 -1.69237,-4.24824 0.55263,-1.00164 1.58876,-2.65945 2.07229,-5.42257 0.48354,-2.76312 0.41447,-6.63135 0.34539,-9.32537 -0.0691,-2.69402 -0.13815,-4.21368 -17.48353,-5.08934 -17.34537,-0.87565 -51.96565,-1.10725 -79.92667,1.29328 -27.96102,2.40053 -49.26122,7.43299 -75.71178,17.32272 -26.45055,9.88973 -58.04976,24.63603 -89.70843,42.89393 -31.65868,18.2579 -63.37493,40.02625 -92.92691,56.17738 -29.55197,16.15114 -56.93796,26.68421 -82.68622,32.53604 -25.74826,5.85184 -49.85728,7.02218 -75.13742,2.69173 -25.28014,-4.33045 -51.72985,-14.16131 -76.60033,-26.62584 -24.87047,-12.46453 -48.16026,-27.56193 -61.88827,-36.16599 -13.72801,-8.60405 -17.8936,-10.71436 -21.99962,-8.67154 z"
         id="path15"
         transform="matrix(1.3555497,0,0,1.3555497,-207.34615,-80.882265)" />
      <path
         style="fill:#fdffff;fill-opacity:1;stroke:#e30035;stroke-width:1.70079;stroke-linecap:round;stroke-linejoin:bevel;stroke-opacity:0"
         d="m 200.88092,461.00389 c -1.67596,2.91759 -4.34626,9.14831 -4.88031,16.71427 -0.53405,7.56596 1.06811,16.46681 5.34067,22.69757 4.27256,6.23075 11.21522,9.79109 16.3729,11.73029 5.15767,1.9392 8.53009,2.25718 10.21633,2.78122 1.68624,0.52405 1.68624,1.25414 1.1995,2.41015 -0.48675,1.15601 -1.46019,2.73786 -4.01559,4.44145 -2.55539,1.70359 -6.69255,3.52881 -9.61297,7.05768 -2.92042,3.52887 -4.62395,8.76116 -4.92815,16.24479 -0.3042,7.48363 0.79093,17.21812 4.50234,24.51917 3.71141,7.30106 10.03882,12.1683 15.14957,15.02787 5.11074,2.85957 9.00454,3.71134 11.98581,2.98122 2.98126,-0.73013 5.04984,-3.04207 7.78775,-3.65047 2.73791,-0.60841 6.14498,0.48672 7.78771,1.58188 1.64272,1.09517 1.52104,2.1903 1.21683,6.75351 -0.30421,4.56321 -0.79094,12.59416 0.6693,18.55669 1.46024,5.96253 4.86731,9.85632 10.43281,13.82084 5.56551,3.96452 13.28907,7.99953 20.12625,9.94079 6.83718,1.94125 12.78759,1.78868 16.02987,1.78868 3.24229,0 3.7763,0.15257 4.19589,1.33507 0.41959,1.1825 0.72474,3.39484 2.40313,5.26393 1.67838,1.86909 4.72987,3.39483 7.20928,3.81441 2.47941,0.41959 4.38659,-0.267 6.25569,2e-5 1.86909,0.26703 3.69998,1.48762 5.11134,3.12786 1.41135,1.64023 2.40309,3.69998 6.29388,6.21754 3.8908,2.51757 10.68037,5.49277 17.81345,6.48452 7.13309,0.99174 14.60924,10e-6 18.99586,-0.41958 4.38662,-0.41959 5.68351,-0.26701 7.40003,1.6021 1.71652,1.86911 3.85256,5.45462 7.70521,9.49797 3.85264,4.04335 9.42161,8.5443 16.5547,12.2062 7.1331,3.66189 15.82985,6.48452 24.22171,6.44635 8.39185,-0.0382 16.4783,-2.93709 22.27629,-5.98868 5.79799,-3.05159 9.3072,-6.25565 11.25257,-7.85771 1.94537,-1.60207 2.32681,-1.60207 4.84439,0.64849 2.51757,2.25057 7.1711,6.75152 11.59589,9.34535 4.4248,2.59382 8.6206,3.28041 14.2279,2.9371 5.6073,-0.34332 12.62573,-1.71649 17.39381,-4.57736 4.76808,-2.86088 7.28556,-7.20926 8.81134,-9.65051 1.52579,-2.44124 2.0598,-2.97525 7.36197,-4.80621 5.30218,-1.83097 15.3721,-4.95875 23.61136,-6.2938 8.23926,-1.33505 14.64739,-0.87732 20.17838,-1.56394 5.53099,-0.68662 10.18451,-2.51752 17.54649,-4.15774 7.36197,-1.64023 17.4319,-3.08968 42.37875,-13.46516 24.94684,-10.37547 64.76882,-29.67617 88.68545,-41.42469 23.91663,-11.74852 31.9268,-15.94432 36.16084,-20.44541 4.23403,-4.50109 4.69176,-9.30719 5.26393,-11.78658 0.57217,-2.47939 1.25876,-2.63197 4.15779,-3.39487 2.89902,-0.7629 8.01027,-2.13607 11.74845,-5.64542 3.73817,-3.50934 6.10308,-9.1546 7.28555,-13.5031 1.18248,-4.34849 1.18248,-7.39998 1.83095,-8.92576 0.64847,-1.52577 1.94535,-1.52577 5.49284,-1.10617 3.54749,0.41959 9.34533,1.25875 15.7918,-1.60214 6.44648,-2.8609 13.5412,-9.42161 18.11855,-15.86808 4.57735,-6.44647 6.63711,-12.77832 6.78967,-19.5681 0.15256,-6.78978 -1.60205,-14.03707 -4.84437,-19.37732 -3.24232,-5.34026 -7.97214,-8.77319 -10.37524,-10.94743 -2.40309,-2.17424 -2.47938,-3.08969 -2.21236,-4.57734 0.26701,-1.48765 0.87731,-3.54741 1.52578,-4.53916 0.64846,-0.99176 1.33504,-0.91547 4.4248,-1.4495 3.08975,-0.53404 8.58243,-1.67835 13.35052,-5.95059 4.7681,-4.27225 8.81133,-11.67212 11.17629,-19.2248 2.36496,-7.55267 3.05154,-15.25769 1.83089,-21.55156 -1.22065,-6.29388 -4.34843,-11.17627 -6.67525,-14.03711 -2.32683,-2.86084 -3.85258,-3.70001 -6.332,-5.68354 -2.47942,-1.98354 -5.91235,-5.11132 -7.43812,-6.86597 -1.52577,-1.75465 -1.14434,-2.13608 -0.22886,-3.01341 0.91548,-0.87734 2.36494,-2.25051 3.92888,-5.18768 1.56394,-2.93717 3.24226,-7.43812 4.04329,-10.45155 0.80103,-3.01342 0.72475,-4.53916 0.45773,-5.37834 -0.26702,-0.83918 -0.72474,-0.99175 -8.8878,-1.25877 -8.16307,-0.26701 -24.03083,-0.64845 -38.37326,0.0763 -14.34243,0.72477 -27.1587,2.55566 -39.13615,4.72992 -11.97746,2.17425 -23.11541,4.69174 -48.90144,15.75381 -25.78604,11.06208 -66.21831,30.66792 -88.18953,41.46281 -21.97122,10.79489 -25.48044,12.77836 -36.08477,20.25479 -10.60432,7.47644 -28.30298,20.44528 -43.52273,30.85879 -15.21975,10.41351 -27.95973,18.2711 -41.31041,25.32788 -13.35069,7.05678 -27.31127,13.31234 -42.03517,18.53816 -14.7239,5.22583 -30.21022,9.42163 -54.73742,9.80304 -24.5272,0.38141 -58.09362,-3.05151 -88.15169,-11.97745 -30.05806,-8.92594 -56.60605,-23.34424 -73.12265,-34.21547 -16.51659,-10.87124 -23.00101,-18.19482 -26.5841,-22.05445 -3.58308,-3.85964 -4.26466,-4.25516 -5.94061,-1.33757 z"
         id="path16"
         transform="matrix(1.3555497,0,0,1.3555497,-210.60908,-78.419216)" />
      <path
         style="fill:#98c3db;fill-opacity:1;stroke:#e30035;stroke-width:1.70079;stroke-linecap:round;stroke-linejoin:bevel;stroke-opacity:0"
         d="m 216.80699,571.41704 c 1.10518,2.16969 4.27943,6.77235 8.96151,10.10533 4.68208,3.33299 10.87174,5.39621 15.07764,6.74527 4.2059,1.34906 6.42783,1.9839 8.8879,3.96784 2.46007,1.98394 5.15813,5.31683 6.98333,9.99891 1.8252,4.68207 2.77746,10.71303 6.26919,15.63315 3.49174,4.92012 9.52269,8.72915 15.15704,11.90342 5.63434,3.17427 10.87174,5.71362 15.95059,6.82461 5.07884,1.11098 9.99883,0.79356 12.77631,1.34907 2.77747,0.55551 3.41231,1.98389 4.36459,3.72975 0.95229,1.74585 2.22197,3.80908 4.84076,4.84071 2.61879,1.03163 6.58653,1.03163 8.95766,0.86951 2.37113,-0.16211 3.14555,-0.48633 4.62632,0.84276 1.48077,1.32909 3.66778,4.31139 8.04197,7.39318 4.37418,3.0818 10.93522,6.26291 17.94382,7.35643 7.00861,1.09352 14.46434,0.0994 18.73905,-0.64617 4.27472,-0.74559 5.36823,-1.24264 7.70444,0.99417 2.33622,2.23682 5.91497,7.2073 10.43826,11.92941 4.52329,4.7221 9.99082,9.19554 16.85032,12.02879 6.85949,2.83324 15.1105,4.02616 22.66587,3.97644 7.55536,-0.0497 14.41463,-1.34205 19.68349,-3.92679 5.26886,-2.58474 8.94702,-6.46172 11.2335,-8.49966 2.28648,-2.03795 3.18117,-2.23677 5.41797,-0.14908 2.23679,2.08769 5.81555,6.46172 10.63708,9.09614 4.82153,2.63442 10.88553,3.52911 17.24794,3.18116 6.36242,-0.34796 13.02288,-1.93852 17.54614,-5.02033 4.52326,-3.08181 6.90909,-7.65466 8.44998,-10.33879 1.54089,-2.68412 2.23676,-3.4794 7.00861,-5.21913 4.77185,-1.73973 13.61932,-4.42379 19.58406,-5.56702 5.96473,-1.14324 9.04644,-0.7456 13.66914,-0.49707 4.62271,0.24853 10.78612,0.34794 16.70117,-1.14327 5.91506,-1.4912 11.58142,-4.57291 42.15109,-20.28025 30.56967,-15.70734 86.04031,-44.03912 116.11241,-59.05031 30.07211,-15.01119 34.74437,-16.70116 38.86999,-20.08121 4.12563,-3.38005 7.70438,-8.44995 9.19555,-12.67499 1.49117,-4.22503 0.89471,-7.60496 0.94442,-9.49379 0.0497,-1.88882 0.74558,-2.28646 3.0818,-1.93851 2.33622,0.34795 6.31261,1.44146 11.13414,0.79526 4.82152,-0.6462 10.48788,-3.03204 16.20411,-7.2571 5.71623,-4.22506 11.482,-10.28905 14.16611,-18.59004 2.68412,-8.30099 2.28648,-18.83842 0.84245,-24.55449 -1.44402,-5.71607 -3.93431,-6.61052 -5.14658,-6.95904 -1.21226,-0.34852 -1.14645,-0.15108 -1.21227,2.18535 -0.0658,2.33643 -0.26325,6.81167 -0.85558,10.72761 -0.59234,3.91594 -1.57952,7.27237 -4.08048,10.99088 -2.50096,3.71851 -6.51551,7.79887 -11.71485,10.46433 -5.19933,2.66546 -11.58312,3.9159 -17.01279,3.22483 -5.42967,-0.69107 -9.9049,-3.32356 -12.17547,-4.54111 -2.27057,-1.21755 -2.33639,-1.02011 -3.2907,-0.0658 -0.95432,0.95431 -2.79706,2.66543 -5.10057,3.12611 -2.3035,0.46069 -5.06762,-0.32906 -34.04187,13.125 -28.97424,13.45406 -84.15635,41.15083 -112.10663,55.52542 -27.95028,14.37459 -28.6676,15.42641 -29.35436,17.30115 -0.68676,1.87474 -1.34291,4.57227 -3.34791,6.50434 -2.005,1.93207 -5.35869,3.09857 -8.82184,3.64538 -3.46315,0.5468 -7.03556,0.4739 -10.68099,-1.20302 -3.64542,-1.67691 -7.36364,-4.95769 -9.25924,-6.4523 -1.8956,-1.4946 -1.9685,-1.20298 -1.13005,0.65621 0.83846,1.85918 2.58821,5.28577 3.28083,10.02484 0.69262,4.73906 0.32809,10.79028 0.14582,15.12831 -0.18227,4.33804 -0.18227,6.96267 -2.07791,11.26429 -1.89564,4.30161 -5.68676,10.27992 -15.12847,15.23769 -9.4417,4.95776 -24.5333,8.8947 -34.59461,10.75385 -10.06132,1.85914 -15.09186,1.64042 -21.79945,-2.5154 -6.7076,-4.15582 -15.09182,-12.24842 -19.35692,-16.22189 -4.2651,-3.97347 -4.41092,-3.82765 -5.72328,-0.94774 -1.31236,2.87991 -3.79118,8.49369 -6.92625,11.84746 -3.13507,3.35377 -6.9262,4.44736 -12.64953,6.16072 -5.72333,1.71335 -13.37849,4.04635 -20.99743,3.68178 -7.61893,-0.36457 -15.20118,-3.42663 -20.63284,-6.34297 -5.43166,-2.91634 -8.71244,-5.68677 -10.60805,-8.82184 -1.8956,-3.13507 -2.40595,-6.63457 -8.01995,-8.67599 -5.614,-2.04142 -16.33123,-2.62468 -25.95513,-3.31731 -9.62391,-0.69263 -18.15394,-1.4946 -25.84578,-6.19723 -7.69183,-4.70264 -14.54502,-13.30558 -18.55496,-17.97168 -4.00993,-4.6661 -5.17644,-5.39516 -6.1607,-5.46807 -0.98426,-0.0729 -1.78623,0.51035 -4.81195,1.38526 -3.02573,0.8749 -8.27498,2.0414 -14.03475,1.53103 -5.75977,-0.51038 -12.02971,-2.69757 -18.3363,-7.4731 -6.30658,-4.77553 -12.64942,-12.13906 -17.49782,-17.0239 -4.8484,-4.88485 -8.20209,-7.29075 -14.39933,-10.97264 -6.19725,-3.68189 -15.23763,-8.63952 -20.23986,-11.25003 -5.00224,-2.61051 -5.9661,-2.87379 -4.86092,-0.7041 z"
         id="path17"
         transform="matrix(1.3555497,0,0,1.3555497,-208.32106,-76.562483)" />
      <path
         style="fill:#98c3db;fill-opacity:1;stroke:#e30035;stroke-width:1.70079;stroke-linecap:round;stroke-linejoin:bevel;stroke-opacity:0"
         d="m 213.61168,471.72579 c 4.04568,9.70962 8.09135,19.41925 13.62051,26.97123 5.52916,7.55198 12.54153,12.94611 19.48668,17.46382 6.94514,4.5177 13.82265,8.15873 19.35178,9.64214 5.52913,1.48341 9.70958,0.80915 13.95758,2.7646 4.24801,1.95546 8.56331,6.54047 15.57591,9.57474 7.0126,3.03427 16.72203,4.51765 23.12771,3.57363 6.40569,-0.94403 9.50731,-4.31536 12.00216,-5.05705 2.49485,-0.74168 4.3828,1.14626 7.07995,3.57369 2.69715,2.42744 6.20333,5.39421 11.39535,8.02392 5.19202,2.62972 12.06953,4.92222 23.80216,6.00106 11.73263,1.07885 28.31956,0.944 39.51265,-1.3486 11.1931,-2.29259 16.99179,-6.74275 21.77921,-9.23759 4.78742,-2.49483 8.56331,-3.03425 13.62046,-3.23653 5.05716,-0.20228 11.39526,-0.0674 17.73355,-2.02288 6.33829,-1.95545 12.67639,-6.00104 18.54267,-8.36103 5.86629,-2.35998 11.26041,-3.03425 16.31756,-3.10167 5.05714,-0.0674 9.777,0.47199 15.71073,-2.83205 5.93373,-3.30405 13.08094,-10.45126 17.59863,-15.64324 4.51769,-5.19198 6.40564,-8.42846 11.39538,-13.35076 4.98975,-4.92231 13.08094,-11.53011 19.6215,-16.11524 6.54056,-4.58512 11.53013,-7.14733 14.15982,-8.36103 2.62969,-1.2137 2.8994,-1.07885 5.46171,1.55089 2.56231,2.62974 7.41702,7.75416 36.61385,-3.57401 29.19683,-11.32817 82.73353,-39.10792 113.07617,-54.68381 30.34264,-15.57588 37.48986,-18.94721 42.00755,-21.44206 4.51769,-2.49485 6.40564,-4.11309 10.18166,-4.8548 3.77602,-0.7417 9.43985,-0.60685 15.913,-1.416 6.47316,-0.80915 13.75523,-2.56224 19.48664,-5.12454 5.73142,-2.56229 9.91187,-5.93362 11.59756,-8.83305 1.68569,-2.89942 0.87657,-5.32678 0.40457,-6.47305 -0.472,-1.14628 -0.60685,-1.01142 -5.3269,-1.07885 -4.72004,-0.0674 -14.02491,-0.33714 -27.91525,0.26973 -13.89034,0.60686 -32.36522,2.09025 -69.11399,14.76693 -36.74877,12.67669 -91.76886,36.5457 -122.44863,50.63818 -30.67978,14.09249 -37.01788,18.40779 -50.03176,27.57299 -13.01388,9.1652 -32.70234,23.17945 -48.25166,33.36946 -15.54932,10.19001 -26.95817,16.55489 -48.92416,24.35712 -21.96598,7.80223 -54.4888,17.04167 -89.26658,15.2157 -34.77777,-1.82598 -71.80991,-14.71731 -108.84234,-27.60875"
         id="path20"
         transform="matrix(1.3555497,0,0,1.3555497,-214.59982,-83.619447)" />
      <g
         id="layer4">
        <path
           style="fill:#27506b;fill-opacity:1;stroke:#e30035;stroke-width:1.70079;stroke-linecap:round;stroke-linejoin:bevel;stroke-opacity:0"
           d="m 235.87011,531.18628 c -3.01086,1.85722 -8.17977,6.12157 -10.7087,9.97216 -2.52893,3.85059 -2.41789,7.28728 -2.17993,11.34079 0.23795,4.05351 0.6028,8.72359 3.95955,13.46678 3.35675,4.74319 9.70513,9.5592 16.09019,12.95239 6.38506,3.39319 12.80641,5.36337 18.93607,5.14443 6.12965,-0.21894 11.96724,-2.62694 15.10501,-4.96205 3.13778,-2.33511 3.57559,-4.59717 3.61207,-6.89579 0.0365,-2.29863 -0.32836,-4.63366 -1.31349,-5.87418 -0.98513,-1.24051 -2.59047,-1.38645 -3.94045,-1.05807 -1.34998,0.32838 -2.44453,1.13105 -5.50938,2.0432 -3.06485,0.91215 -8.09977,1.93373 -13.64565,0.40129 -5.54589,-1.53244 -11.60239,-5.61875 -14.9226,-9.9606 -3.3202,-4.34184 -3.90396,-8.93895 -3.79449,-13.2443 0.10946,-4.30535 0.91213,-8.31869 1.53239,-10.61729 0.62026,-2.29861 1.05808,-2.88237 0.85058,-3.44922 -0.20751,-0.56685 -1.06031,-1.11675 -4.07117,0.74046 z"
           id="path21"
           transform="matrix(1.3555497,0,0,1.3555497,-197.08789,-56.271376)" />
        <path
           style="fill:#49687b;fill-opacity:1;stroke:#e30035;stroke-width:1.70079;stroke-linecap:round;stroke-linejoin:bevel;stroke-opacity:0"
           d="m 327.04227,596.69035 c -3.28972,0.33272 -9.13062,2.00154 -12.32921,7.91208 -3.19859,5.91053 -3.75485,16.06236 -1.69629,23.57861 2.05857,7.51626 6.73179,12.39653 12.45432,17.91478 5.72254,5.51825 12.49401,11.67414 20.80473,14.23914 8.31072,2.565 18.16014,1.53902 26.72733,-0.87212 8.56719,-2.41115 15.85166,-6.20728 19.75047,-10.77305 3.89881,-4.56576 4.41181,-9.90086 3.33448,-12.87627 -1.07733,-2.97542 -3.74488,-3.59101 -6.05341,-2.87278 -2.30852,0.71822 -4.25789,2.77018 -7.33593,4.77091 -3.07805,2.00072 -7.28458,3.95009 -13.38937,4.46308 -6.10479,0.51299 -14.10745,-0.4104 -19.6992,-1.53901 -5.59174,-1.12862 -8.77228,-2.46239 -12.61984,-6.82297 -3.84755,-4.36059 -8.36187,-11.74766 -9.33655,-18.16022 -0.97467,-6.41257 1.59028,-11.85027 2.50351,-15.07089 0.91322,-3.22062 0.17468,-4.224 -3.11504,-3.89129 z"
           id="path22"
           transform="matrix(1.3555497,0,0,1.3555497,-208.13318,-77.422931)" />
        <path
           style="fill:#49687b;fill-opacity:1;stroke:#e30035;stroke-width:1.70079;stroke-linecap:round;stroke-linejoin:bevel;stroke-opacity:0"
           d="m 489.43938,626.62702 c -2.14967,1.95424 -5.86272,6.44899 -6.93754,12.70263 -1.07482,6.25365 0.48855,14.26588 5.22766,20.86149 4.73911,6.59561 12.65362,11.77424 20.4218,13.87504 7.76818,2.1008 15.38956,1.1237 24.28146,-1.75885 8.89189,-2.88256 19.05373,-7.67035 25.25847,-14.85227 6.20473,-7.18193 8.45206,-16.75752 7.76804,-23.64626 -0.68402,-6.88873 -4.29929,-11.09026 -7.23067,-13.48421 -2.93138,-2.39395 -5.17871,-2.98021 -5.9604,-2.14963 -0.78169,0.83057 -0.0977,3.0779 0.29313,7.18186 0.39085,4.10396 0.48856,10.06428 -2.00315,15.48734 -2.4917,5.42307 -7.57263,10.30857 -14.60798,12.9468 -7.03536,2.63822 -16.02468,3.02906 -23.69513,0.73278 -7.67046,-2.29628 -14.02161,-7.27949 -17.05068,-12.50714 -3.02907,-5.22765 -2.73594,-10.69941 -2.88252,-13.72849 -0.14657,-3.02907 -0.73283,-3.61533 -2.88249,-1.66109 z"
           id="path23"
           transform="matrix(1.3555497,0,0,1.3555497,-204.38237,-76.256508)" />
        <path
           style="fill:#3d677f;fill-opacity:1;stroke:#e30035;stroke-width:1.70079;stroke-linecap:round;stroke-linejoin:bevel;stroke-opacity:0"
           d="m 262.89154,506.9376 c -0.6265,4.41183 -1.22562,13.39864 2.44408,23.05956 3.66969,9.66093 11.60788,19.99555 21.26882,25.31275 9.66093,5.3172 21.04399,5.61676 27.63433,5.09251 6.59035,-0.52424 8.38767,-1.87223 9.36125,-2.24668 0.97357,-0.37445 1.12335,0.22466 2.09694,4.11901 0.97359,3.89436 2.77091,11.08367 10.33494,17.44938 7.56403,6.36571 20.8942,11.90747 29.95595,13.40524 9.06174,1.49778 13.85461,-1.04843 16.55066,-2.17178 2.69605,-1.12335 3.29516,-0.8238 4.04407,3.44502 0.74891,4.26882 1.64757,12.50656 7.41421,19.99564 5.76665,7.48907 16.40082,14.22904 26.2864,18.4229 9.88559,4.19386 19.02199,5.84141 28.98248,3.59465 9.96049,-2.24677 20.74444,-8.38763 27.03523,-15.50226 6.29078,-7.11464 8.08811,-15.20261 7.1145,-21.34364 -0.97361,-6.14103 -4.71804,-10.33479 -6.88986,-11.60791 -2.17181,-1.27311 -2.77092,0.37444 -3.00437,2.99413 -0.23345,2.61968 -0.10124,6.21133 -3.36087,11.21415 -3.25963,5.00282 -9.91084,11.41649 -16.97797,14.80155 -7.06713,3.38507 -14.54975,3.74139 -22.68586,1.42524 -8.13611,-2.31614 -16.92522,-7.30455 -22.27007,-13.42149 -5.34485,-6.11694 -7.2452,-13.36201 -6.29497,-19.36015 0.95024,-5.99813 4.75093,-10.749 6.47315,-13.65897 1.72222,-2.90998 1.3659,-3.97893 -0.29696,-5.34484 -1.66287,-1.36592 -4.63216,-3.02872 -6.31097,-3.67518 -1.67881,-0.64646 -2.06706,-0.27654 -3.19634,1.12817 -1.12928,1.40472 -2.9995,3.84414 -8.32576,6.08035 -5.32627,2.2362 -14.10819,4.26905 -22.52444,3.49651 -8.41626,-0.77253 -16.46635,-4.35035 -21.14201,-8.94474 -4.67567,-4.59439 -5.9767,-10.20506 -5.69207,-14.96207 0.28462,-4.75701 2.15485,-8.66008 3.34133,-11.82896 1.18649,-3.16887 1.68917,-5.60338 1.78443,-6.97675 0.0953,-1.37336 -0.21692,-1.68554 -1.92195,-2.15382 -1.70502,-0.46828 -4.80275,-1.09263 -6.43571,-1.35677 -1.63296,-0.26415 -1.80104,-0.16811 -3.398,1.74104 -1.59696,1.90914 -4.62265,5.63123 -8.45292,8.28479 -3.83027,2.65355 -8.46487,4.23845 -14.33636,4.50259 -5.87148,0.26414 -12.97946,-0.79245 -18.50271,-3.59012 -5.52325,-2.79767 -9.46146,-7.33622 -12.00695,-11.71881 -2.54548,-4.38258 -3.69813,-8.60895 -3.90224,-11.44261 -0.20411,-2.83366 0.5403,-4.27447 0.82847,-5.03091 0.28818,-0.75644 0.12007,-0.82848 -2.13729,-1.93314 -2.25735,-1.10467 -6.60379,-3.24187 -9.104,-4.39206 -2.50021,-1.1502 -3.15408,-1.31334 -3.78059,3.09848 z"
           id="path24"
           transform="matrix(1.3555497,0,0,1.3555497,-211.02266,-85.694679)" />
        <path
           style="fill:#254f61;fill-opacity:1;stroke:#e30035;stroke-width:1.70079;stroke-linecap:round;stroke-linejoin:bevel;stroke-opacity:0"
           d="m 408.78319,531.42833 c -0.0611,2.40281 0.10181,7.20843 3.93009,12.76754 3.82828,5.5591 11.32164,11.87144 18.57087,15.94402 7.24923,4.07258 14.25389,5.9052 21.52348,5.45719 7.2696,-0.44801 14.80368,-3.17657 21.80855,-6.8012 7.00487,-3.62462 13.48011,-8.14507 17.93959,-15.43505 4.45948,-7.28999 6.90296,-17.34901 6.41422,-24.37421 -0.48874,-7.02521 -3.90962,-11.01624 -5.74228,-12.93034 -1.83265,-1.9141 -2.077,-1.7512 -3.40061,-1.09958 -1.3236,0.65162 -3.72636,1.79191 -5.00922,2.42316 -1.28286,0.63125 -1.44576,0.75342 -1.2014,4.19481 0.24436,3.44138 0.89596,10.20169 -1.05891,15.88296 -1.95488,5.68126 -6.51605,10.28317 -11.1181,13.62269 -4.60204,3.33952 -9.24466,5.41648 -15.43503,5.62009 -6.19037,0.20361 -13.92808,-1.46611 -19.54824,-4.84639 -5.62017,-3.38027 -9.1225,-8.47087 -11.0977,-11.11803 -1.97519,-2.64717 -2.42317,-2.85079 -4.82602,-2.72861 -2.40285,0.12218 -6.76041,0.57016 -9.08177,0.79415 -2.32136,0.22399 -2.60643,0.22399 -2.66752,2.6268 z"
           id="path25"
           transform="matrix(1.3555497,0,0,1.3555497,-224.20023,-85.74043)" />
        <path
           style="fill:#3d677f;fill-opacity:1;stroke:#e30035;stroke-width:1.70079;stroke-linecap:round;stroke-linejoin:bevel;stroke-opacity:0"
           d="m 498.33796,558.82471 c -2.16024,0.88952 -6.396,3.51569 -6.31124,9.78473 0.0848,6.26903 4.48986,16.18052 12.24142,23.08486 7.75157,6.90434 18.84906,10.80117 30.32811,10.33519 11.47904,-0.46598 23.33895,-5.29466 31.55638,-12.1567 8.21744,-6.86203 12.79197,-15.75696 13.80853,-22.83074 1.01656,-7.07378 -1.52485,-12.32603 -3.98161,-14.74041 -2.45677,-2.41439 -4.82875,-1.99082 -5.93005,0.0424 -1.1013,2.0332 -0.93187,5.67589 -3.30395,10.80124 -2.37208,5.12534 -7.28547,11.733 -12.79203,16.22294 -5.50656,4.48994 -11.60594,6.86192 -19.31513,6.48066 -7.70919,-0.38125 -17.02769,-3.51566 -22.95778,-8.34449 -5.9301,-4.82884 -8.47151,-11.35179 -9.7846,-15.03691 -1.31309,-3.68513 -1.3978,-4.53227 -3.55805,-3.64276 z"
           id="path26"
           transform="matrix(1.3555497,0,0,1.3555497,-207.61563,-89.86164)" />
        <path
           style="fill:#3d677f;fill-opacity:1;stroke:#e30035;stroke-width:1.70079;stroke-linecap:round;stroke-linejoin:bevel;stroke-opacity:0"
           d="m 515.36953,491.81409 c 0.41232,4.67265 1.63256,14.28207 8.15336,22.13745 6.52079,7.85538 18.34167,13.95648 30.08664,15.44362 11.74496,1.48714 23.41331,-1.63967 30.81107,-5.14791 7.39776,-3.50824 10.52457,-7.39769 12.01174,-9.80005 1.48717,-2.40237 1.33464,-3.31753 1.16778,-8.06246 -0.16687,-4.74494 -0.34806,-13.31928 -0.57111,-17.45201 -0.22305,-4.13273 -0.48794,-3.82369 -1.87866,-0.38001 -1.39071,3.44369 -3.90716,10.02176 -9.55831,15.16515 -5.65116,5.1434 -14.43663,8.85184 -23.39897,8.63105 -8.96233,-0.22079 -18.10099,-4.37071 -23.73001,-9.29338 -5.62901,-4.92267 -7.74812,-10.61777 -8.7194,-14.45875 -0.97127,-3.84098 -0.79468,-5.82765 -0.70638,-7.10797 0.0883,-1.28033 0.0883,-1.85426 -2.14127,-0.70635 -2.22957,1.1479 -6.68853,4.01753 -9.11586,5.32031 -2.42733,1.30278 -2.82294,1.03866 -2.41062,5.71131 z"
           id="path27"
           transform="matrix(1.3555497,0,0,1.3555497,-205.99927,-90.385901)" />
        <path
           style="fill:#3d677f;fill-opacity:1;stroke:#e30035;stroke-width:1.70079;stroke-linecap:round;stroke-linejoin:bevel;stroke-opacity:0"
           d="m 764.2241,485.17286 c 1.6995,0.11284 5.28756,0.43321 9.90084,-1.20068 4.61329,-1.63388 10.25156,-5.22188 14.64057,-9.67497 4.389,-4.4531 7.52849,-9.77102 8.84197,-15.85798 1.31349,-6.08697 0.80091,-12.9426 0.76888,-16.43455 -0.032,-3.49196 0.41647,-3.6201 2.72313,-1.24937 2.30665,2.37074 6.47129,7.24016 7.43235,14.80082 0.96107,7.56067 -1.28143,17.81208 -6.11898,25.94936 -4.83756,8.13727 -12.26983,14.15997 -19.27808,17.35296 -7.00825,3.19299 -13.59208,3.55613 -16.92139,3.69103 -3.3293,0.13491 -3.40397,0.0416 -3.41331,-2.87988 -0.009,-2.92145 0.0467,-8.67077 -0.0199,-11.59284 -0.0666,-2.92207 -0.25561,-3.01674 1.44389,-2.9039 z"
           id="path28"
           transform="matrix(1.3555497,0,0,1.3555497,-218.22781,-86.26648)" />
        <path
           style="fill:#3d677f;fill-opacity:1;stroke:#e30035;stroke-width:1.70079;stroke-linecap:round;stroke-linejoin:bevel;stroke-opacity:0"
           d="m 781.98309,391.61616 c -1.98387,0.60578 -4.47912,3.56889 -3.11448,8.48148 1.36465,4.91259 6.58897,11.77439 15.2055,14.07467 8.61652,2.30029 20.62467,0.039 28.31128,-3.56234 7.68662,-3.60135 11.05134,-8.54254 12.67152,-11.19981 1.62018,-2.65727 1.49577,-3.0305 0.3553,-5.2285 -1.14047,-2.198 -3.29692,-6.22061 -4.54106,-8.25269 -1.24413,-2.03207 -1.5759,-2.07355 -3.08961,-0.45614 -1.51372,1.6174 -4.20928,4.89354 -8.50158,7.21593 -4.29231,2.32239 -10.18107,3.6909 -15.84191,3.83604 -5.66085,0.14514 -11.09344,-0.93309 -14.54604,-2.348 -3.45261,-1.41491 -4.92506,-3.16642 -6.90892,-2.56064 z"
           id="path29"
           transform="matrix(1.3555497,0,0,1.3555497,-215.64007,-79.600155)" />
      </g>
      <g
         id="layer6">
        <path
           style="fill:#000000;fill-opacity:1;stroke:#e30035;stroke-width:1.70079;stroke-linecap:round;stroke-linejoin:bevel;stroke-opacity:0"
           d="m 583.28008,433.53978 c 4.64363,2.69152 13.93088,8.07458 17.29809,43.69021 3.3672,35.61564 0.81435,101.46384 -0.8314,136.28071 -1.64574,34.81687 -2.38435,38.60224 -3.6308,40.95662 -1.24645,2.35437 -3.00064,3.27763 -3.92392,7.38631 -0.92329,4.10867 -1.01561,11.40244 -0.13848,14.81857 0.87714,3.41613 2.72366,2.9545 30.51494,-11.44896 27.79128,-14.40346 81.52512,-42.74759 109.71107,-58.44175 28.18594,-15.69415 30.82276,-18.73756 31.60756,-23.63105 0.78481,-4.89348 -0.28252,-11.63658 -0.83958,-44.06208 -0.55705,-32.42549 -0.60383,-90.53091 -1.2826,-121.43471 -0.67878,-30.90381 -1.98951,-34.60469 -5.26645,-39.11528 -3.27694,-4.5106 -8.51986,-9.83062 -11.95097,-12.68344 -3.43111,-2.85282 -5.05025,-3.23833 -28.68285,5.55162 -23.6326,8.78995 -69.27681,26.75464 -95.81717,38.19089 -26.54035,11.43624 -33.97564,16.34348 -36.76744,23.94234 z"
           id="path30"
           transform="matrix(1.3555497,0,0,1.3555497,-212.70341,-79.463669)" />
        <path
           style="fill:url(#linearGradient35);fill-opacity:1;stroke:#e30035;stroke-width:1.70079;stroke-linecap:round;stroke-linejoin:bevel;stroke-opacity:0"
           d="m 604.35589,429.6894 c 1.89322,2.24381 5.67964,6.73142 8.51715,10.98756 2.83752,4.25613 4.72604,8.28062 5.8319,11.46437 1.10586,3.18375 1.42901,5.52657 1.7321,33.58111 0.30309,28.05454 0.5861,81.81859 0.60109,112.11708 0.015,30.29849 -0.23802,37.13006 -0.72262,41.96773 -0.48459,4.83767 -1.20073,7.68119 -2.00499,9.94754 -0.80426,2.26635 -1.69659,3.95541 -1.84,4.81589 -0.14341,0.86048 0.4621,0.89234 4.62117,-1.08362 4.15907,-1.97596 11.87137,-5.95959 25.40023,-12.74792 13.52885,-6.78832 32.87334,-16.3809 47.85218,-23.79064 14.97884,-7.40975 25.59122,-12.63627 31.40744,-15.83918 5.81622,-3.20291 6.83603,-4.38206 8.7323,-8.58893 1.89627,-4.20686 4.66888,-11.44113 5.89586,-20.97027 1.22698,-9.52914 0.90829,-21.35255 0.70113,-37.38318 -0.20715,-16.03064 -0.30276,-36.26746 -0.50992,-59.915 -0.20715,-23.64755 -0.52584,-50.70434 -1.33853,-65.3644 -0.81269,-14.66006 -2.11932,-16.92276 -3.63314,-19.5361 -1.51383,-2.61334 -3.23476,-5.57716 -5.94371,-8.5092 -2.70896,-2.93204 -6.40576,-5.83211 -8.50917,-7.1547 -2.1034,-1.32259 -2.6133,-1.06764 -10.64461,2.51777 -8.03131,3.5854 -23.58338,10.50097 -39.82113,17.95855 -16.23776,7.45758 -33.1602,15.4567 -44.37838,20.93831 -11.21817,5.48161 -16.7315,8.44542 -19.754,10.08305 -3.0225,1.63763 -3.55403,1.94899 -3.81979,2.10468 -0.26577,0.15568 -0.26577,0.15569 1.62744,2.3995 z"
           id="path31"
           transform="matrix(1.3555497,0,0,1.3555497,-209.19728,-80.544853)" />
        <path
           style="fill:#accad5;fill-opacity:1;stroke:#e30035;stroke-width:1.70079;stroke-linecap:round;stroke-linejoin:bevel;stroke-opacity:0"
           d="m 604.12144,429.41176 c 1.65557,1.92614 5.27575,6.08264 8.15851,10.37327 2.88275,4.29063 5.028,8.71521 6.32536,10.52981 1.29735,1.81461 1.74674,1.01918 3.71934,-0.78372 1.97261,-1.80289 5.46827,-4.61313 16.12702,-10.23381 10.65874,-5.62068 28.47978,-14.0514 46.06145,-22.27674 17.58166,-8.22534 34.9229,-16.2448 43.69652,-20.42598 8.77361,-4.18118 8.97923,-4.52389 8.09216,-6.30926 -0.88707,-1.78537 -2.86677,-5.01326 -5.86544,-8.31388 -2.99868,-3.30061 -7.01612,-6.67375 -9.42285,-7.96239 -2.40674,-1.28863 -3.20265,-0.49272 -3.06999,0.90965 0.13266,1.40236 1.19387,3.41108 1.64869,4.71868 0.45481,1.3076 0.30321,1.91401 -16.54421,10.42299 -16.84742,8.50899 -50.38931,24.91988 -67.44485,33.18234 -17.05555,8.26247 -17.62406,8.37617 -19.15908,7.14435 -1.53503,-1.23181 -4.03645,-3.80905 -5.49566,-5.04083 -1.4592,-1.23179 -1.8761,-1.11809 -3.01316,-0.43586 -1.13705,0.68224 -2.99417,1.93295 -4.07727,2.4062 -1.0831,0.47326 -1.39212,0.16904 0.26346,2.09518 z"
           id="path35"
           transform="matrix(1.3555497,0,0,1.3555497,-210.36061,-77.271823)" />
        <path
           style="fill:#415f71;fill-opacity:1;stroke:#e30035;stroke-width:1.70079;stroke-linecap:round;stroke-linejoin:bevel;stroke-opacity:0"
           d="m 619.11409,452.31584 c 0.1636,1.2458 0.71491,3.594 1.17984,34.34441 0.46494,30.7504 0.8435,89.90066 0.98547,121.70052 0.14196,31.79986 0.0473,36.24796 -0.94644,39.51314 -0.99377,3.26518 -2.88657,5.34727 -3.02852,6.19904 -0.14195,0.85178 1.46694,0.47322 20.70877,-8.98194 19.24183,-9.45516 56.1143,-27.98578 76.15855,-38.48099 20.04426,-10.49522 23.25777,-12.95372 24.97987,-15.46415 1.72211,-2.51043 1.9526,-5.07249 2.02027,-13.41149 0.0677,-8.33899 -0.0275,-22.4542 -0.31169,-53.5989 -0.2842,-31.14469 -0.7574,-79.31666 -1.50349,-103.99808 -0.74609,-24.68141 -1.76502,-25.87127 -2.51195,-26.46621 -0.74693,-0.59494 -1.22182,-0.59494 -3.00273,0.16492 -1.78091,0.75986 -4.86771,2.27951 -6.29242,3.22932 -1.4247,0.94981 -1.18726,1.32972 -0.71235,3.53806 0.47491,2.20833 1.18725,6.24492 2.01834,33.57602 0.83109,27.33111 1.78087,77.95464 2.25578,103.55185 0.4749,25.59722 0.4749,26.16709 0.40366,28.56539 -0.0712,2.39829 -0.21371,6.62483 -2.47039,10.18321 -2.25668,3.55838 -6.62731,6.44833 -12.20752,10.03391 -5.5802,3.58558 -12.36946,7.86644 -27.13828,15.7296 -14.76882,7.86315 -37.51616,19.30806 -49.00879,24.9119 -11.49262,5.60384 -11.73007,5.36639 -11.65883,4.77275 0.0712,-0.59363 0.45115,-1.54342 0.71235,-30.82169 0.26119,-29.27828 0.40366,-86.88272 0.4274,-116.11294 0.0238,-29.23021 -0.0712,-30.08502 -0.488,-31.85201 -0.41678,-1.76698 -1.1553,-4.44596 -1.57465,-5.85971 -0.41935,-1.41375 -0.51947,-1.56206 -0.74172,-1.52135 -0.22225,0.0407 -0.5666,0.27043 -1.91496,1.13908 -1.34836,0.86866 -3.70061,2.37618 -4.98883,3.20166 -1.28821,0.82548 -1.51233,0.96888 -1.34874,2.21468 z"
           id="path36"
           transform="matrix(1.3555497,0,0,1.3555497,-209.60096,-77.856201)" />
        <circle
           style="fill:#415f71;fill-opacity:1;stroke:#e30035;stroke-width:2.30551;stroke-linecap:round;stroke-linejoin:bevel;stroke-opacity:0"
           id="path37"
           cx="706.23859"
           cy="551.4812"
           r="12.199947" />
      </g>
    </g>
  </g>
</svg>
